# xmcd CD database file
#
# Track frame offsets:
#	150
#	14206
#	26657
#	39854
#	53015
#	64373
#	79161
#	92767
#	107578
#	121660
#	135236
#	149766
#	162719
#	178857
#	191604
#	206584
#	218251
#	231812
#	247497
#	262903
#	276707
#	289008
#
# Disc length: 4008 seconds
#
# Revision: 0
# Processed by: cddbd v1.5.2PL0 Copyright (c) Steve Scherf et al.
# Submitted via: CDex 1.70beta2
#
DISCID=4e0fa616
DTITLE=Benny Goodman - Giants of Jazz Disc 1
DYEAR=1900
DGENRE=Jazz
TTITLE0=Waitin’ for Katie: Ben Pollack and His Orchestra
TTITLE1=A Jazz Holiday: Benny Goodman’s Boys with Jim and Glenn
TTITLE2=Wolverine Blues: Benny Goodman’s Boys with Jim and Glenn 
TTITLE3=Blue: Bennie Goodman’s Boys 
TTITLE4=Clarinetitis: Benny Goodman 
TTITLE5=Sweetest Melody: Jack Pettis’ Orchestra
TTITLE6=Shim‑Me‑Sha-Wabble: Red Nichols and His Five Pennies
TTITLE7=Basin Street Blues: The Charleston Chasers
TTITLE8=Dip Your Brush in the Sunshine: Ted Lewis and His Band 
TTITLE9=Farewell Blues: Eddie Lang‑Joe Venuti and Their All Star Orchestra 
TTITLE10=King Porter Stomp: Benny Goodman and His Orchestra 
TTITLE11=After You’ve Gone: Benny Goodman Trio
TTITLE12=Body and Soul: Benny Goodman Trio
TTITLE13=Three Little Words: Gene Krupa and His Chicagoans
TTITLE14=Stompin’ at the Savoy: Benny Goodman and His Orchestra
TTITLE15=Goody Goody: Benny Goodman and His Orchestra
TTITLE16=Swing Is Here: Gene Krupa’s Swing Band
TTITLE17=Moon Glow: Benny Goodman Quartet
TTITLE18=Vibraphone Blues: Benny Goodman Quartet
TTITLE19=Down South Camp Meetin’: Benny Goodman and His Orchestra 
TTITLE20=Bugle Call Rag: Benny Goodman and His Orchestra 
TTITLE21=Ridin’ High: Benny Goodman and His Orchestra 
EXTD=
EXTT0=
EXTT1=
EXTT2=
EXTT3=
EXTT4=
EXTT5=
EXTT6=
EXTT7=
EXTT8=
EXTT9=
EXTT10=
EXTT11=
EXTT12=
EXTT13=
EXTT14=
EXTT15=
EXTT16=
EXTT17=
EXTT18=
EXTT19=
EXTT20=
EXTT21=
PLAYORDER=
